# xmcd
#
# Track frame offsets:
#	150
#	12620
#	33437
#	47045
#	60385
#	74062
#	88462
#	101660
#	120997
#	134845
#	148202
#	162992
#	182380
#	196785
#
# Disc length: 2829 seconds
#
# Revision: 5
# Processed by: cddbd v1.5.2PL0 Copyright (c) Steve Scherf et al.
# Submitted via: EasyCDDAExtractor 12.0.0.1
#
DISCID=d00b0b0e
DTITLE=Big Bill Morganfield - Ramblin' Mind
DYEAR=2001
DGENRE=Blues
TTITLE0=Mellow Chick Swing
TTITLE1=Strong Man Holler
TTITLE2=Roll With Me
TTITLE3=What's The Matter
TTITLE4=People Sure Act Funny
TTITLE5=Ramblin' Mind
TTITLE6=Trace Of You
TTITLE7=Dirty Dealin' Mama
TTITLE8=Foolish Love
TTITLE9=My Doggy's Got The Blues
TTITLE10=Troubles
TTITLE11=Highway 69
TTITLE12=Little Angel
TTITLE13=You're Gonna Miss Me
EXTD=
EXTT0=
EXTT1=
EXTT2=
EXTT3=
EXTT4=
EXTT5=
EXTT6=
EXTT7=
EXTT8=
EXTT9=
EXTT10=
EXTT11=
EXTT12=
EXTT13=
PLAYORDER=
